<?xml version="1.0" encoding="utf-8"?>
<!-- Generator: Adobe Illustrator 25.0.1, SVG Export Plug-In . SVG Version: 6.00 Build 0)  -->
<svg version="1.1" id="Layer_1" xmlns="http://www.w3.org/2000/svg" xmlns:xlink="http://www.w3.org/1999/xlink" x="0px" y="0px"
	 viewBox="0 0 216 216" style="enable-background:new 0 0 216 216;" xml:space="preserve">
<style type="text/css">
	.st0{fill:none;stroke:#000000;stroke-width:11.2823;stroke-miterlimit:10;}
</style>
<g>
	<line class="st0" x1="38.6" y1="95.8" x2="95.4" y2="39.2"/>
	<line class="st0" x1="121.8" y1="175.5" x2="178.6" y2="119.2"/>
	<path d="M26.8,0C40.3,0,53,10.8,53.4,26.7c0.4,14.7-11.9,26.5-26.8,26.6C12.2,53.5,0.1,41.4,0,26.7C-0.1,12.1,11.9,0.1,26.8,0z"/>
	<line class="st0" x1="127.3" y1="26.7" x2="173.2" y2="26.7"/>
	<line class="st0" x1="46.9" y1="189.3" x2="88.4" y2="189.3"/>
	<g>
		<path d="M26.8,162.6C11.9,162.7-0.1,174.7,0,189.4C0.1,204,12.2,216.1,26.6,216c14.9-0.1,27.1-12,26.8-26.6
			C53,173.3,40.3,162.6,26.8,162.6z M26.7,200.3c-6.1,0-11-4.9-11-11c0-6.1,4.9-11,11-11s11,4.9,11,11
			C37.7,195.4,32.8,200.3,26.7,200.3z"/>
	</g>
	<line class="st0" x1="46.9" y1="108" x2="89" y2="108"/>
	<line class="st0" x1="127.3" y1="108" x2="172" y2="108"/>
	<g>
		<g>
			<path d="M108.1,0C93.2,0.1,81.2,12.1,81.3,26.8c0.1,14.6,12.2,26.8,26.6,26.6c14.9-0.1,27.1-12,26.8-26.6
				C134.3,10.7,121.6,0,108.1,0z M108,37.6c-6.1,0-11-4.9-11-11s4.9-11,11-11c6.1,0,11,4.9,11,11S114.1,37.6,108,37.6z"/>
		</g>
		<g>
			<path d="M108.1,162.6c-14.8,0.1-26.8,12.1-26.8,26.8c0.1,14.6,12.2,26.8,26.6,26.6c14.9-0.1,27.1-12,26.8-26.6
				C134.3,173.3,121.6,162.6,108.1,162.6z M108,200.3c-6.1,0-11-4.9-11-11c0-6.1,4.9-11,11-11c6.1,0,11,4.9,11,11
				C119,195.4,114.1,200.3,108,200.3z"/>
		</g>
		<g>
			<path d="M108.1,81.3c-14.8,0.1-26.8,12.1-26.8,26.8c0.1,14.6,12.2,26.8,26.6,26.6c14.9-0.1,27.1-12,26.8-26.6
				C134.3,92,121.6,81.3,108.1,81.3z M108,119c-6.1,0-11-4.9-11-11c0-6.1,4.9-11,11-11c6.1,0,11,4.9,11,11
				C119,114.1,114.1,119,108,119z"/>
		</g>
	</g>
	<g>
		<path d="M26.8,81.3C11.9,81.4-0.1,93.4,0,108.1c0.1,14.6,12.2,26.8,26.6,26.6c14.9-0.1,27.1-12,26.8-26.6
			C53,92,40.3,81.3,26.8,81.3z M26.7,119c-6.1,0-11-4.9-11-11c0-6.1,4.9-11,11-11s11,4.9,11,11C37.7,114.1,32.8,119,26.7,119z"/>
	</g>
	<g>
		<g>
			<path d="M189.4,0c-14.8,0.1-26.8,12.1-26.8,26.8c0.1,14.6,12.2,26.8,26.6,26.6c14.9-0.1,27.1-12,26.8-26.6
				C215.6,10.7,202.9,0,189.4,0z M189.3,37.6c-6.1,0-11-4.9-11-11s4.9-11,11-11c6.1,0,11,4.9,11,11S195.4,37.6,189.3,37.6z"/>
		</g>
		<path d="M189.4,162.6c13.6,0,26.3,10.8,26.6,26.7c0.4,14.7-11.9,26.5-26.8,26.6c-14.5,0.1-26.5-12-26.6-26.6
			C162.5,174.7,174.5,162.7,189.4,162.6z"/>
		<g>
			<path d="M189.4,81.3c-14.8,0.1-26.8,12.1-26.8,26.8c0.1,14.6,12.2,26.8,26.6,26.6c14.9-0.1,27.1-12,26.8-26.6
				C215.6,92,202.9,81.3,189.4,81.3z M189.3,119c-6.1,0-11-4.9-11-11c0-6.1,4.9-11,11-11c6.1,0,11,4.9,11,11
				C200.3,114.1,195.4,119,189.3,119z"/>
		</g>
	</g>
</g>
</svg>
