<?xml version="1.0" encoding="utf-8"?>
<!-- Generator: Adobe Illustrator 25.0.1, SVG Export Plug-In . SVG Version: 6.00 Build 0)  -->
<svg version="1.1" id="Layer_1" xmlns="http://www.w3.org/2000/svg" xmlns:xlink="http://www.w3.org/1999/xlink" x="0px" y="0px"
	 viewBox="0 0 662.8 288" style="enable-background:new 0 0 662.8 288;" xml:space="preserve">
<style type="text/css">
	.st0{fill:none;stroke:#000000;stroke-width:8.7532;stroke-miterlimit:10;}
</style>
<g>
	<g>
		<path d="M251.6,23.9c-0.4-3.8-1.8-6.6-4.1-8.4c-2.3-1.8-5.8-2.7-10.5-2.7c-4.3,0-7.6,0.7-9.8,2.2c-2.2,1.4-3.3,3.6-3.3,6.4
			c0,2.3,0.9,4.2,2.6,5.6c1.8,1.4,4.6,2.6,8.8,3.6c4.2,1,8.2,2.1,12,3c3.8,1,7,2.1,9.8,3.4c1.6,0.7,3.1,1.6,4.6,2.6
			c1.4,1,2.6,2.2,3.6,3.5c1,1.4,1.8,3,2.4,5c0.6,1.9,0.9,4.2,0.9,6.7c0,4.1-0.7,7.5-2.2,10.4c-1.4,2.9-3.4,5.3-6.1,7.2
			c-2.6,1.9-5.7,3.4-9.3,4.2c-3.6,0.9-7.5,1.4-11.8,1.4c-4.6,0-8.7-0.5-12.5-1.5c-3.8-1-7-2.5-9.7-4.6s-4.9-4.6-6.4-7.7
			c-1.5-3-2.3-6.6-2.4-10.7H223c0.2,3.8,1.7,6.7,4.6,8.9c2.9,2.2,6.8,3.3,11.8,3.3c4.6,0,8.1-0.9,10.6-2.7c2.5-1.8,3.7-4.3,3.7-7.7
			c0-1.1-0.2-2.1-0.5-3c-0.3-0.9-1-1.7-1.8-2.5c-0.9-0.8-2-1.4-3.4-2.1c-1.4-0.6-3.4-1.2-5.6-1.7c-4.6-1-8.4-1.9-11.5-2.7
			c-3.1-0.8-6-1.8-8.6-3c-4-1.8-7-4.1-9.1-6.9C211,30.7,210,27,210,22.3c0-3.3,0.6-6.3,1.7-9.1c1.1-2.7,2.8-5.1,5-7.1
			c2.2-2,5-3.5,8.4-4.6s7.3-1.7,11.8-1.7c4.6,0,8.7,0.6,12.3,1.8c3.6,1.2,6.6,2.8,9.1,5c2.5,2.2,4.4,4.6,5.8,7.6s2.1,6.2,2.2,9.7
			h-14.7V23.9z"/>
		<path d="M310.1,75.6V42.7c0-4.2-0.7-7-2.1-8.5s-3.8-2.2-7.2-2.2c-7.4,0-11.1,4.2-11.1,12.5v31.1h-14.3V21.3h13.7v7.9
			c1.7-3.1,3.9-5.4,6.7-7c2.8-1.6,6.4-2.4,10.8-2.4c2.6,0,5,0.4,7.2,1.1c2.2,0.8,4.1,1.9,5.7,3.4c1.6,1.5,2.8,3.4,3.8,5.7
			s1.4,4.8,1.4,7.8v37.6h-14.5V75.6z"/>
		<path d="M367.4,75.6c-0.4-1.4-0.7-3-0.9-4.9c-1.7,1.9-3.9,3.4-6.7,4.6c-2.8,1.1-6,1.7-9.7,1.7c-6.2,0-10.8-1.4-13.8-4.2
			c-2.9-2.7-4.3-6.3-4.3-10.7c0-3.9,0.6-7,1.8-9.4c1.3-2.3,3-4.2,5.2-5.4c2.2-1.4,4.8-2.3,7.9-3c3-0.6,6.4-1.2,10-1.7s6-1.2,7.3-2
			c1.3-0.9,1.8-2.2,1.8-4.2c0-1.8-0.8-3.1-2.5-4.2c-1.7-1-3.8-1.5-6.6-1.5c-3.3,0-5.7,0.7-7.1,2.2c-1.4,1.4-2.3,3.4-2.7,5.8h-13.4
			c0.1-2.8,0.6-5.4,1.4-7.8c0.9-2.3,2.2-4.4,4.1-6.1c1.8-1.7,4.3-3,7.4-3.9c3-0.9,6.7-1.4,11-1.4c4.2,0,7.9,0.5,10.9,1.4
			c3,1,5.4,2.3,7.2,4.2c1.8,1.8,3.1,4.1,3.9,6.7c0.8,2.7,1.2,5.7,1.2,9.1v34.3L367.4,75.6L367.4,75.6z M366.4,49
			c-0.7,0.7-1.8,1.4-3.2,1.8c-1.4,0.5-3.4,1-6.1,1.4c-4.1,0.8-7,1.8-8.5,3.1c-1.5,1.3-2.3,3-2.3,5.4c0,4.1,2.3,6.1,7,6.1
			c1.8,0,3.5-0.3,5.1-1c1.6-0.6,3-1.4,4.1-2.6c1.1-1,2.1-2.3,2.7-3.8c0.7-1.4,1-3,1-4.6L366.4,49z"/>
		<path d="M390,75.6V21.3h13.4v6.5c1.2-1.8,2.4-3.3,3.7-4.3c1.3-1,2.6-1.8,4-2.4s2.7-0.9,4.2-1c1.4-0.2,2.8-0.2,4.3-0.2h1.8v14.6
			c-1.4-0.2-2.6-0.3-4-0.3c-8.7,0-13.1,4.4-13.1,13.1v28.2H390V75.6z"/>
		<path d="M433.8,75.6V31.5h-8.1V21.3h8.1c0-13.2,7.7-19.8,23-19.8v11.6c-1.8,0-3.4,0.2-4.5,0.4c-1.1,0.2-2.1,0.7-2.7,1.4
			c-0.6,0.6-1.1,1.5-1.4,2.6c-0.2,1-0.4,2.4-0.4,3.9h9.3v10.2h-9.3v44.1L433.8,75.6L433.8,75.6z"/>
		<path d="M497.7,75.6V68c-3.7,6-9.3,9-16.9,9c-2.7,0-5.2-0.5-7.4-1.4c-2.2-1-4.2-2.3-5.8-4.1c-1.6-1.8-2.9-3.8-3.8-6.3
			c-1-2.4-1.4-5.1-1.4-8.2V21.3h14.3v33.5c0,6.8,3,10.2,9.1,10.2c3.7,0,6.5-1.1,8.3-3.4c1.8-2.3,2.8-5.3,2.8-8.9V21.3h14.2v54.2
			L497.7,75.6L497.7,75.6z"/>
		<path d="M520.6,75.6V1.5h14.3v74L520.6,75.6L520.6,75.6z"/>
		<path d="M251.6,117.3c-0.4-3.8-1.8-6.6-4.1-8.4s-5.8-2.7-10.5-2.7c-4.3,0-7.6,0.7-9.8,2.2c-2.2,1.4-3.3,3.6-3.3,6.4
			c0,2.3,0.9,4.2,2.6,5.6c1.8,1.4,4.6,2.6,8.8,3.6c4.2,1,8.2,2.1,12,3c3.8,1,7,2.1,9.8,3.4c1.6,0.7,3.1,1.6,4.6,2.6
			c1.4,1,2.6,2.2,3.6,3.5c1,1.4,1.8,3,2.4,5s0.9,4.2,0.9,6.7c0,4.1-0.7,7.5-2.2,10.4s-3.4,5.3-6.1,7.2c-2.6,1.9-5.7,3.4-9.3,4.2
			c-3.6,0.9-7.5,1.4-11.8,1.4c-4.6,0-8.7-0.5-12.5-1.5c-3.8-1-7-2.5-9.7-4.6s-4.9-4.6-6.4-7.7c-1.5-3-2.3-6.6-2.4-10.7H223
			c0.2,3.8,1.7,6.7,4.6,8.9c2.9,2.2,6.8,3.3,11.8,3.3c4.6,0,8.1-0.9,10.6-2.7c2.5-1.8,3.7-4.3,3.7-7.7c0-1.1-0.2-2.1-0.5-3
			c-0.3-0.9-1-1.7-1.8-2.5c-0.9-0.8-2-1.4-3.4-2.1c-1.4-0.6-3.4-1.2-5.6-1.7c-4.6-1-8.4-1.9-11.5-2.7c-3.1-0.8-6-1.8-8.6-3
			c-4-1.8-7-4.1-9.1-6.9c-2.1-2.8-3.1-6.6-3.1-11.2c0-3.3,0.6-6.3,1.7-9.1c1.1-2.7,2.8-5.1,5-7.1c2.2-2,5-3.5,8.4-4.6
			c3.4-1.1,7.3-1.7,11.8-1.7c4.6,0,8.7,0.6,12.3,1.8c3.6,1.2,6.6,2.8,9.1,5c2.5,2.2,4.4,4.6,5.8,7.6c1.4,3,2.1,6.2,2.2,9.7h-14.7
			V117.3z"/>
		<path d="M301.2,170.3c-4.4,0-8.3-0.7-11.8-2.1c-3.4-1.4-6.4-3.4-8.8-5.8c-2.4-2.5-4.2-5.5-5.4-9c-1.3-3.5-1.8-7.4-1.8-11.6
			c0-4.2,0.6-8.2,1.9-11.7c1.3-3.5,3.1-6.6,5.6-9c2.4-2.5,5.4-4.4,8.8-5.8s7.3-2,11.6-2c4.2,0,8.1,0.7,11.4,2
			c3.4,1.4,6.2,3.3,8.6,5.8c2.4,2.5,4.2,5.4,5.5,9c1.3,3.5,1.9,7.4,1.9,11.8c0,4.3-0.6,8.2-1.9,11.8c-1.3,3.5-3.1,6.5-5.5,9
			c-2.4,2.5-5.3,4.4-8.7,5.8C309.2,169.6,305.4,170.3,301.2,170.3z M301.2,158.3c8.7,0,13.1-5.5,13.1-16.6c0-11-4.4-16.4-13.1-16.4
			s-13.1,5.4-13.1,16.4C288.1,152.8,292.5,158.3,301.2,158.3z"/>
		<path d="M336.4,168.8v-74h14.3v74H336.4z"/>
		<path d="M395.2,168.8v-7.6c-3.7,6-9.3,9-16.9,9c-2.7,0-5.2-0.5-7.4-1.4c-2.2-1-4.2-2.3-5.8-4.1c-1.6-1.8-2.9-3.8-3.8-6.3
			c-1-2.4-1.4-5.1-1.4-8.2v-35.7h14.3V148c0,6.8,3,10.2,9.1,10.2c3.7,0,6.5-1.1,8.3-3.4c1.8-2.3,2.8-5.3,2.8-8.9v-31.3h14.2v54.2
			L395.2,168.8L395.2,168.8z"/>
		<path d="M448.7,133.1H462v15.4c0,2.9-0.4,5.6-1.3,8.2s-2.2,5-4,7c-1.8,2-4.1,3.6-6.8,4.8c-2.7,1.2-6.1,1.8-9.8,1.8
			c-4,0-7.4-0.6-10.2-1.8c-2.8-1.2-5.1-2.7-6.9-4.7c-1.8-2-3.1-4.3-3.9-7s-1.2-5.4-1.2-8.4V100H432v14.6h30v10.2h-30V147
			c0,3.4,0.6,6.2,1.9,8c1.3,1.8,3.4,2.8,6.3,2.8c2.9,0,5-0.9,6.3-2.7s2.1-4.5,2.1-7.8L448.7,133.1L448.7,133.1z"/>
		<path d="M471.2,108.1V94.8h14.3v13.4H471.2z M471.2,168.8v-54.2h14.3v54.2H471.2z"/>
		<path d="M521.2,170.3c-4.4,0-8.3-0.7-11.8-2.1c-3.4-1.4-6.4-3.4-8.8-5.8c-2.4-2.5-4.2-5.5-5.4-9c-1.3-3.5-1.8-7.4-1.8-11.6
			c0-4.2,0.6-8.2,1.9-11.7c1.3-3.5,3.1-6.6,5.6-9c2.4-2.5,5.4-4.4,8.8-5.8s7.3-2,11.6-2c4.2,0,8.1,0.7,11.4,2
			c3.4,1.4,6.2,3.3,8.6,5.8c2.4,2.5,4.2,5.4,5.5,9c1.3,3.5,1.9,7.4,1.9,11.8c0,4.3-0.6,8.2-1.9,11.8c-1.3,3.5-3.1,6.5-5.5,9
			c-2.4,2.5-5.3,4.4-8.7,5.8C529.2,169.6,525.4,170.3,521.2,170.3z M521.2,158.3c8.7,0,13.1-5.5,13.1-16.6c0-11-4.4-16.4-13.1-16.4
			c-8.7,0-13.1,5.4-13.1,16.4C508.1,152.8,512.4,158.3,521.2,158.3z"/>
		<path d="M591,168.8V136c0-4.2-0.7-7-2.1-8.5c-1.4-1.4-3.8-2.2-7.2-2.2c-7.4,0-11.1,4.2-11.1,12.5v31.1h-14.3v-54.2H570v7.9
			c1.7-3.1,3.9-5.4,6.7-7s6.4-2.4,10.8-2.4c2.6,0,5,0.4,7.2,1.1c2.2,0.8,4.1,1.9,5.7,3.4c1.6,1.5,2.8,3.4,3.8,5.7
			c1,2.2,1.4,4.8,1.4,7.8v37.6H591V168.8z"/>
		<path d="M646.6,131c-0.4-2.6-1.4-4.5-2.9-5.6c-1.5-1-4-1.6-7.3-1.6c-2.7,0-4.8,0.3-6.3,1c-1.4,0.7-2.2,1.8-2.2,3.4
			c0,1.6,0.7,2.9,2.2,3.7c1.4,0.9,3.7,1.7,6.6,2.5c3.1,0.9,6,1.7,8.8,2.4c2.8,0.7,5.3,1.4,7.4,2.2c2.9,1.2,5,2.8,6.6,4.8
			c1.5,2,2.3,4.8,2.3,8.3c0,5.7-2,10.1-6,13.2c-4,3.2-9.9,4.7-17.7,4.7c-8.4,0-14.8-1.8-19.3-5.3c-4.5-3.5-6.7-8.1-6.9-13.6h14.8
			c0,2.6,1,4.6,3,5.9c2,1.4,4.7,2.1,8.2,2.1c2.6,0,4.8-0.4,6.7-1.3s2.9-2.3,2.9-4.3c0-1.9-0.9-3.3-2.6-4.1c-1.8-0.8-3.8-1.5-6.2-2.1
			c-4.6-1.1-8.2-2.1-11-3s-5.1-1.9-7-3.2c-2.6-1.6-4.3-3.4-5.4-5.5c-1-2.1-1.5-4.3-1.5-6.7c0-2.2,0.4-4.4,1.2-6.4
			c0.8-2,2.2-3.7,4-5.1c1.8-1.4,4.2-2.6,7.1-3.4c2.9-0.8,6.4-1.2,10.6-1.2c7.8,0,13.7,1.5,17.4,4.6c3.7,3,5.8,7.4,6.2,13.4
			L646.6,131L646.6,131z"/>
		<path d="M264.7,262.1l-0.3-7.3c-1.8,3.1-4.6,5.5-8.5,7.2c-3.9,1.8-8.4,2.6-13.4,2.6c-5,0-9.7-1.1-13.8-3.3s-7.6-5-10.5-8.7
			c-2.9-3.6-5.1-7.8-6.6-12.6c-1.5-4.7-2.3-9.7-2.3-14.7c0-5.4,0.8-10.4,2.3-15.2c1.5-4.7,3.8-8.9,6.8-12.4c3-3.5,6.8-6.3,11.3-8.3
			c4.5-2,9.7-3,15.7-3c4.3,0,8.4,0.6,12.2,1.8c3.8,1.3,7.1,3,9.9,5.2c2.8,2.2,5.1,4.8,6.8,7.9c1.8,3,2.7,6.4,3,10.1h-15.4
			c-0.2-1.7-0.8-3.3-1.8-4.8c-1-1.5-2.2-2.8-3.6-3.9c-1.4-1.1-3.2-2-5.1-2.6s-3.9-1-6-1c-6.2,0-11.1,2.3-14.8,6.9s-5.6,11.3-5.6,20
			c0,3,0.4,6.1,1.1,9.1c0.8,3,2,5.8,3.6,8.2c1.7,2.5,3.8,4.5,6.3,6c2.6,1.5,5.6,2.3,9.1,2.3c2.5,0,4.8-0.5,7-1.4
			c2.2-0.9,4.1-2.1,5.7-3.6c1.6-1.5,2.9-3.4,3.8-5.4c1-2,1.4-4.2,1.4-6.5h-16.2v-12.2h30.5V262h-12.7V262.1z"/>
		<path d="M286.4,262.1v-54.2h13.4v6.5c1.2-1.8,2.4-3.3,3.7-4.3s2.6-1.8,4-2.4c1.4-0.6,2.7-0.9,4.2-1c1.4-0.2,2.8-0.2,4.3-0.2h1.8
			V221c-1.4-0.2-2.6-0.3-4-0.3c-8.7,0-13.1,4.4-13.1,13.1v28.2L286.4,262.1L286.4,262.1z"/>
		<path d="M349.5,263.6c-4.4,0-8.3-0.7-11.8-2.1c-3.4-1.4-6.4-3.4-8.8-5.8c-2.4-2.5-4.2-5.5-5.4-9c-1.3-3.5-1.8-7.4-1.8-11.6
			c0-4.2,0.6-8.2,1.9-11.7c1.3-3.5,3.1-6.6,5.6-9c2.4-2.5,5.4-4.4,8.8-5.8s7.3-2,11.6-2c4.2,0,8.1,0.7,11.4,2
			c3.4,1.4,6.2,3.3,8.6,5.8c2.4,2.5,4.2,5.4,5.5,9c1.3,3.5,1.9,7.4,1.9,11.8c0,4.3-0.6,8.2-1.9,11.8c-1.3,3.5-3.1,6.5-5.5,9
			c-2.4,2.5-5.3,4.4-8.7,5.8C357.5,262.9,353.7,263.6,349.5,263.6z M349.5,251.5c8.7,0,13.1-5.5,13.1-16.6c0-11-4.4-16.4-13.1-16.4
			s-13.1,5.4-13.1,16.4C336.4,246,340.8,251.5,349.5,251.5z"/>
		<path d="M419.7,262.1v-7.6c-3.7,6-9.3,9-16.9,9c-2.7,0-5.2-0.5-7.4-1.4s-4.2-2.3-5.8-4.1c-1.6-1.8-2.9-3.8-3.8-6.3
			c-1-2.4-1.4-5.1-1.4-8.2v-35.7h14.3v33.5c0,6.8,3,10.2,9.1,10.2c3.7,0,6.5-1.1,8.3-3.4c1.8-2.3,2.8-5.3,2.8-8.9v-31.3h14.2v54.2
			L419.7,262.1L419.7,262.1z"/>
		<path d="M442.6,287.8v-80h13.8l0.1,6.6c3.3-5.4,8.3-8.1,15.1-8.1c3.4,0,6.6,0.6,9.4,2c2.9,1.4,5.4,3.2,7.4,5.8
			c2.1,2.5,3.7,5.5,4.9,9.1c1.2,3.6,1.8,7.7,1.8,12.2c0,4.1-0.5,7.9-1.5,11.3c-1,3.4-2.5,6.4-4.3,8.9c-1.9,2.5-4.2,4.4-7,5.8
			c-2.7,1.4-5.9,2-9.4,2c-6.7,0-12.1-2.8-16.1-8.5v32.7h-14.1V287.8z M468.2,251.3c8.2,0,12.3-5.6,12.3-16.8c0-4.9-1.1-8.8-3.4-11.8
			c-2.3-3-5.2-4.6-8.8-4.6c-3.4,0-6.3,1.4-8.6,4.3c-2.3,2.9-3.4,6.6-3.4,11.3C456.2,245.4,460.2,251.3,468.2,251.3z"/>
	</g>
	<g>
		<line class="st0" x1="29" y1="75.8" x2="73" y2="31.9"/>
		<line class="st0" x1="93.5" y1="137.6" x2="137.6" y2="93.9"/>
		<path d="M19.8,1.4c10.6,0,20.4,8.4,20.6,20.7c0.2,11.4-9.2,20.5-20.8,20.7C8.4,42.9-1,33.5-1,22.2C-1,10.8,8.3,1.5,19.8,1.4z"/>
		<line class="st0" x1="97.8" y1="22.1" x2="133.4" y2="22.1"/>
		<line class="st0" x1="35.4" y1="148.3" x2="67.6" y2="148.3"/>
		<g>
			<path d="M19.8,127.6C8.3,127.6-1,136.9-1,148.4c0.1,11.4,9.4,20.8,20.6,20.6c11.6-0.1,21-9.3,20.8-20.7
				C40.2,136,30.3,127.6,19.8,127.6z M19.8,156.8c-4.7,0-8.6-3.8-8.6-8.6s3.8-8.6,8.6-8.6s8.6,3.8,8.6,8.6
				C28.3,153,24.4,156.8,19.8,156.8z"/>
		</g>
		<line class="st0" x1="35.4" y1="85.2" x2="68.1" y2="85.2"/>
		<line class="st0" x1="97.8" y1="85.2" x2="132.4" y2="85.2"/>
		<g>
			<g>
				<path d="M82.9,1.4c-11.5,0.1-20.8,9.4-20.8,20.8c0.1,11.4,9.4,20.8,20.6,20.6c11.6-0.1,21-9.3,20.8-20.7
					C103.3,9.8,93.4,1.4,82.9,1.4z M82.8,30.7c-4.7,0-8.6-3.8-8.6-8.6s3.9-8.5,8.6-8.5c4.7,0,8.6,3.8,8.6,8.6S87.5,30.7,82.8,30.7z"
					/>
			</g>
			<g>
				<path d="M82.9,127.6c-11.5,0.1-20.8,9.4-20.8,20.8c0.1,11.4,9.4,20.8,20.6,20.6c11.6-0.1,21-9.3,20.8-20.7
					C103.3,136,93.4,127.6,82.9,127.6z M82.8,156.8c-4.7,0-8.6-3.8-8.6-8.6s3.8-8.6,8.6-8.6s8.6,3.8,8.6,8.6S87.5,156.8,82.8,156.8z
					"/>
			</g>
			<g>
				<path d="M82.9,64.5c-11.5,0.1-20.8,9.4-20.8,20.8c0.1,11.4,9.4,20.8,20.6,20.6c11.6-0.1,21-9.3,20.8-20.7
					C103.3,72.9,93.4,64.5,82.9,64.5z M82.8,93.7c-4.7,0-8.6-3.8-8.6-8.6c0-4.7,3.8-8.6,8.6-8.6s8.6,3.8,8.6,8.6
					C91.4,89.9,87.5,93.7,82.8,93.7z"/>
			</g>
		</g>
		<g>
			<path d="M19.8,64.5C8.3,64.6-1,73.8-1,85.3c0.1,11.4,9.4,20.8,20.6,20.6c11.6-0.1,21-9.3,20.8-20.7
				C40.2,72.9,30.3,64.5,19.8,64.5z M19.8,93.7c-4.7,0-8.6-3.8-8.6-8.6c0-4.7,3.8-8.6,8.6-8.6s8.6,3.8,8.6,8.6
				C28.3,89.9,24.4,93.7,19.8,93.7z"/>
		</g>
		<g>
			<g>
				<path d="M146,1.4c-11.5,0.1-20.8,9.4-20.8,20.8c0.1,11.4,9.4,20.8,20.6,20.6c11.6-0.1,21-9.3,20.8-20.7
					C166.4,9.8,156.5,1.4,146,1.4z M145.9,30.7c-4.7,0-8.6-3.8-8.6-8.6s3.9-8.5,8.6-8.5c4.7,0,8.6,3.8,8.6,8.6
					S150.6,30.7,145.9,30.7z"/>
			</g>
			<path d="M146,127.6c10.6,0,20.4,8.4,20.6,20.7c0.2,11.4-9.2,20.5-20.8,20.7c-11.2,0.1-20.6-9.3-20.6-20.6
				C125.2,136.9,134.4,127.6,146,127.6z"/>
			<g>
				<path d="M146,64.5c-11.5,0.1-20.8,9.4-20.8,20.8c0.1,11.4,9.4,20.8,20.6,20.6c11.6-0.1,21-9.3,20.8-20.7
					C166.4,72.9,156.5,64.5,146,64.5z M145.9,93.7c-4.7,0-8.6-3.8-8.6-8.6c0-4.7,3.8-8.6,8.6-8.6s8.6,3.8,8.6,8.6
					C154.4,89.9,150.6,93.7,145.9,93.7z"/>
			</g>
		</g>
	</g>
</g>
</svg>
